<svg xmlns="http://www.w3.org/2000/svg" xmlns:xlink="http://www.w3.org/1999/xlink" width="1500" zoomAndPan="magnify" viewBox="0 0 1125 675.000002" height="900" preserveAspectRatio="xMidYMid meet" version="1.0"><defs><g/><clipPath id="5b71bd6c4d"><path d="M 68.222656 67 L 250 67 L 250 232 L 68.222656 232 Z M 68.222656 67 " clip-rule="nonzero"/></clipPath><clipPath id="80a054d8b4"><path d="M 68.222656 231 L 145 231 L 145 306.871094 L 68.222656 306.871094 Z M 68.222656 231 " clip-rule="nonzero"/></clipPath><clipPath id="9f6d449ac2"><path d="M 144 231 L 221 231 L 221 306.871094 L 144 306.871094 Z M 144 231 " clip-rule="nonzero"/></clipPath><clipPath id="9d80772172"><path d="M 220 231 L 297 231 L 297 306.871094 L 220 306.871094 Z M 220 231 " clip-rule="nonzero"/></clipPath><clipPath id="f3d3fa377a"><path d="M 296 231 L 373 231 L 373 306.871094 L 296 306.871094 Z M 296 231 " clip-rule="nonzero"/></clipPath><clipPath id="b8d1052a7b"><path d="M 372 231 L 449 231 L 449 306.871094 L 372 306.871094 Z M 372 231 " clip-rule="nonzero"/></clipPath><clipPath id="b5714ce86f"><path d="M 448 231 L 525 231 L 525 306.871094 L 448 306.871094 Z M 448 231 " clip-rule="nonzero"/></clipPath><clipPath id="78af09228d"><path d="M 524 231 L 601 231 L 601 306.871094 L 524 306.871094 Z M 524 231 " clip-rule="nonzero"/></clipPath><clipPath id="37c08ea287"><path d="M 600 231 L 677 231 L 677 306.871094 L 600 306.871094 Z M 600 231 " clip-rule="nonzero"/></clipPath><clipPath id="422dd84025"><path d="M 676 231 L 753 231 L 753 306.871094 L 676 306.871094 Z M 676 231 " clip-rule="nonzero"/></clipPath><clipPath id="42c0948cd9"><path d="M 752 231 L 829 231 L 829 306.871094 L 752 306.871094 Z M 752 231 " clip-rule="nonzero"/></clipPath><clipPath id="065675a3ca"><path d="M 828 231 L 905 231 L 905 306.871094 L 828 306.871094 Z M 828 231 " clip-rule="nonzero"/></clipPath><clipPath id="7fcab5c24e"><path d="M 904 231 L 981 231 L 981 306.871094 L 904 306.871094 Z M 904 231 " clip-rule="nonzero"/></clipPath><clipPath id="16802c1999"><path d="M 875 67 L 1056.421875 67 L 1056.421875 232 L 875 232 Z M 875 67 " clip-rule="nonzero"/></clipPath><clipPath id="1502e692ec"><path d="M 980 231 L 1056.421875 231 L 1056.421875 306.871094 L 980 306.871094 Z M 980 231 " clip-rule="nonzero"/></clipPath><clipPath id="fc6ee50fee"><path d="M 175 58.394531 L 950 58.394531 L 950 76 L 175 76 Z M 175 58.394531 " clip-rule="nonzero"/></clipPath><clipPath id="98b7ed619c"><path d="M 0.832031 526 L 1124.167969 526 L 1124.167969 674 L 0.832031 674 Z M 0.832031 526 " clip-rule="nonzero"/></clipPath></defs><g clip-path="url(#5b71bd6c4d)"><path fill="#0866ff" d="M 249.230469 67.105469 L 192.25 67.105469 L 68.335938 231.859375 L 144.375 231.859375 L 249.230469 67.105469 " fill-opacity="1" fill-rule="nonzero"/></g><g clip-path="url(#80a054d8b4)"><path fill="#0866ff" d="M 68.335938 231.859375 L 68.335938 268.476562 C 68.335938 289.480469 85.359375 306.492188 106.359375 306.492188 C 127.351562 306.492188 144.375 289.480469 144.375 268.476562 L 144.375 231.859375 L 68.335938 231.859375 " fill-opacity="1" fill-rule="nonzero"/></g><g clip-path="url(#9f6d449ac2)"><path fill="#ffffff" d="M 144.375 231.859375 L 144.375 268.476562 C 144.375 289.480469 161.398438 306.492188 182.398438 306.492188 C 203.398438 306.492188 220.414062 289.480469 220.414062 268.476562 L 220.414062 231.859375 L 144.375 231.859375 " fill-opacity="1" fill-rule="nonzero"/></g><path fill="#ffffff" d="M 220.414062 231.859375 L 306.203125 67.105469 L 249.230469 67.105469 L 144.375 231.859375 L 220.414062 231.859375 " fill-opacity="1" fill-rule="nonzero"/><g clip-path="url(#9d80772172)"><path fill="#0866ff" d="M 220.414062 231.859375 L 220.414062 268.476562 C 220.414062 289.480469 237.4375 306.492188 258.4375 306.492188 C 279.4375 306.492188 296.460938 289.480469 296.460938 268.476562 L 296.460938 231.859375 L 220.414062 231.859375 " fill-opacity="1" fill-rule="nonzero"/></g><path fill="#0866ff" d="M 296.460938 231.859375 L 363.1875 67.105469 L 306.203125 67.105469 L 220.414062 231.859375 L 296.460938 231.859375 " fill-opacity="1" fill-rule="nonzero"/><path fill="#ffffff" d="M 372.503906 231.859375 L 420.160156 67.105469 L 363.1875 67.105469 L 296.460938 231.859375 L 372.503906 231.859375 " fill-opacity="1" fill-rule="nonzero"/><g clip-path="url(#f3d3fa377a)"><path fill="#ffffff" d="M 296.460938 231.859375 L 296.460938 268.476562 C 296.460938 289.480469 313.488281 306.492188 334.476562 306.492188 C 355.476562 306.492188 372.503906 289.480469 372.503906 268.476562 L 372.503906 231.859375 L 296.460938 231.859375 " fill-opacity="1" fill-rule="nonzero"/></g><path fill="#0866ff" d="M 448.542969 231.859375 L 477.140625 67.105469 L 420.160156 67.105469 L 372.503906 231.859375 L 448.542969 231.859375 " fill-opacity="1" fill-rule="nonzero"/><g clip-path="url(#b8d1052a7b)"><path fill="#0866ff" d="M 372.503906 231.859375 L 372.503906 268.476562 C 372.503906 289.480469 389.527344 306.492188 410.519531 306.492188 L 410.527344 306.492188 C 431.519531 306.492188 448.542969 289.480469 448.542969 268.476562 L 448.542969 231.859375 L 372.503906 231.859375 " fill-opacity="1" fill-rule="nonzero"/></g><path fill="#ffffff" d="M 524.582031 231.859375 L 534.113281 67.105469 L 477.140625 67.105469 L 448.542969 231.859375 L 524.582031 231.859375 " fill-opacity="1" fill-rule="nonzero"/><g clip-path="url(#b5714ce86f)"><path fill="#ffffff" d="M 448.542969 231.859375 L 448.542969 268.476562 C 448.542969 289.480469 465.566406 306.492188 486.566406 306.492188 C 507.558594 306.492188 524.582031 289.480469 524.582031 268.476562 L 524.582031 231.859375 L 448.542969 231.859375 " fill-opacity="1" fill-rule="nonzero"/></g><path fill="#0866ff" d="M 600.628906 231.859375 L 591.097656 67.105469 L 534.113281 67.105469 L 524.582031 231.859375 L 600.628906 231.859375 " fill-opacity="1" fill-rule="nonzero"/><g clip-path="url(#78af09228d)"><path fill="#0866ff" d="M 524.582031 231.859375 L 524.582031 268.476562 C 524.582031 289.480469 541.605469 306.492188 562.605469 306.492188 C 583.605469 306.492188 600.621094 289.480469 600.621094 268.476562 L 600.621094 231.859375 L 524.582031 231.859375 " fill-opacity="1" fill-rule="nonzero"/></g><path fill="#ffffff" d="M 676.671875 231.859375 L 648.070312 67.105469 L 591.097656 67.105469 L 600.628906 231.859375 L 676.671875 231.859375 " fill-opacity="1" fill-rule="nonzero"/><g clip-path="url(#37c08ea287)"><path fill="#ffffff" d="M 600.621094 231.859375 L 600.621094 268.476562 C 600.621094 289.480469 617.644531 306.492188 638.644531 306.492188 C 659.644531 306.492188 676.671875 289.480469 676.671875 268.476562 L 676.671875 231.859375 L 600.621094 231.859375 " fill-opacity="1" fill-rule="nonzero"/></g><g clip-path="url(#422dd84025)"><path fill="#0866ff" d="M 676.671875 231.859375 L 676.671875 268.476562 C 676.671875 289.480469 693.695312 306.492188 714.683594 306.492188 C 735.6875 306.492188 752.710938 289.480469 752.710938 268.476562 L 752.710938 231.859375 L 676.671875 231.859375 " fill-opacity="1" fill-rule="nonzero"/></g><path fill="#0866ff" d="M 752.710938 231.859375 L 705.050781 67.105469 L 648.070312 67.105469 L 676.671875 231.859375 L 752.710938 231.859375 " fill-opacity="1" fill-rule="nonzero"/><path fill="#ffffff" d="M 828.75 231.859375 L 762.023438 67.105469 L 705.050781 67.105469 L 752.710938 231.859375 L 828.75 231.859375 " fill-opacity="1" fill-rule="nonzero"/><g clip-path="url(#42c0948cd9)"><path fill="#ffffff" d="M 752.710938 231.859375 L 752.710938 268.476562 C 752.710938 289.480469 769.734375 306.492188 790.734375 306.492188 C 811.734375 306.492188 828.75 289.480469 828.75 268.476562 L 828.75 231.859375 L 752.710938 231.859375 " fill-opacity="1" fill-rule="nonzero"/></g><path fill="#0866ff" d="M 904.796875 231.859375 L 819.007812 67.105469 L 762.023438 67.105469 L 828.75 231.859375 L 904.796875 231.859375 " fill-opacity="1" fill-rule="nonzero"/><g clip-path="url(#065675a3ca)"><path fill="#0866ff" d="M 828.75 231.859375 L 828.75 268.476562 C 828.75 289.480469 845.773438 306.492188 866.773438 306.492188 C 887.773438 306.492188 904.796875 289.480469 904.796875 268.476562 L 904.796875 231.859375 L 828.75 231.859375 " fill-opacity="1" fill-rule="nonzero"/></g><path fill="#ffffff" d="M 980.835938 231.859375 L 875.980469 67.105469 L 819.007812 67.105469 L 904.796875 231.859375 L 980.835938 231.859375 " fill-opacity="1" fill-rule="nonzero"/><g clip-path="url(#7fcab5c24e)"><path fill="#ffffff" d="M 904.796875 231.859375 L 904.796875 268.476562 C 904.796875 289.480469 921.8125 306.492188 942.8125 306.492188 C 963.8125 306.492188 980.835938 289.480469 980.835938 268.476562 L 980.835938 231.859375 L 904.796875 231.859375 " fill-opacity="1" fill-rule="nonzero"/></g><g clip-path="url(#16802c1999)"><path fill="#0866ff" d="M 1056.878906 231.859375 L 932.960938 67.105469 L 875.980469 67.105469 L 980.835938 231.859375 L 1056.878906 231.859375 " fill-opacity="1" fill-rule="nonzero"/></g><g clip-path="url(#1502e692ec)"><path fill="#0866ff" d="M 980.835938 231.859375 L 980.835938 268.476562 C 980.835938 289.480469 997.863281 306.492188 1018.851562 306.492188 C 1039.855469 306.492188 1056.878906 289.480469 1056.878906 268.476562 L 1056.878906 231.859375 L 980.835938 231.859375 " fill-opacity="1" fill-rule="nonzero"/></g><g clip-path="url(#fc6ee50fee)"><path fill="#d6d6d6" d="M 941.40625 58.664062 L 183.804688 58.664062 C 179.140625 58.664062 175.351562 62.441406 175.351562 67.105469 C 175.351562 71.773438 179.140625 75.558594 183.804688 75.558594 L 941.40625 75.558594 C 946.074219 75.558594 949.859375 71.773438 949.859375 67.105469 C 949.859375 62.441406 946.074219 58.664062 941.40625 58.664062 " fill-opacity="1" fill-rule="nonzero"/></g><g fill="#0866ff" fill-opacity="1"><g transform="translate(77.25081, 519.741808)"><g><path d="M 1.71875 -142.171875 L 1.71875 -177.71875 L 126.671875 -177.71875 L 126.671875 -142.171875 L 84.453125 -142.171875 L 84.453125 0 L 43.953125 0 L 43.953125 -142.171875 Z M 1.71875 -142.171875 "/></g></g></g><g fill="#0866ff" fill-opacity="1"><g transform="translate(194.861869, 519.741808)"><g><path d="M 16.578125 -172.109375 C 21.035156 -176.566406 26.351562 -178.796875 32.53125 -178.796875 C 38.707031 -178.796875 44.019531 -176.566406 48.46875 -172.109375 C 52.914062 -167.660156 55.140625 -162.347656 55.140625 -156.171875 C 55.140625 -150.003906 52.914062 -144.691406 48.46875 -140.234375 C 44.019531 -135.785156 38.707031 -133.5625 32.53125 -133.5625 C 26.351562 -133.5625 21.035156 -135.785156 16.578125 -140.234375 C 12.128906 -144.691406 9.90625 -150.003906 9.90625 -156.171875 C 9.90625 -162.347656 12.128906 -167.660156 16.578125 -172.109375 Z M 12.921875 -110.515625 L 12.921875 0 L 51.0625 0 L 51.0625 -110.515625 Z M 12.921875 -110.515625 "/></g></g></g><g fill="#0866ff" fill-opacity="1"><g transform="translate(249.143304, 519.741808)"><g><path d="M 124.734375 -49.984375 L 44.59375 -49.984375 C 44.59375 -42.222656 47.101562 -36.472656 52.125 -32.734375 C 57.15625 -29.003906 62.613281 -27.140625 68.5 -27.140625 C 74.675781 -27.140625 79.554688 -27.960938 83.140625 -29.609375 C 86.734375 -31.265625 90.832031 -34.535156 95.4375 -39.421875 L 123 -25.640625 C 111.507812 -6.390625 92.410156 3.234375 65.703125 3.234375 C 49.046875 3.234375 34.753906 -2.472656 22.828125 -13.890625 C 10.910156 -25.304688 4.953125 -39.054688 4.953125 -55.140625 C 4.953125 -71.234375 10.910156 -85.023438 22.828125 -96.515625 C 34.753906 -108.003906 49.046875 -113.75 65.703125 -113.75 C 83.222656 -113.75 97.472656 -108.6875 108.453125 -98.5625 C 119.441406 -88.4375 124.9375 -73.960938 124.9375 -55.140625 C 124.9375 -52.554688 124.867188 -50.835938 124.734375 -49.984375 Z M 45.671875 -71.09375 L 87.671875 -71.09375 C 86.816406 -76.832031 84.554688 -81.242188 80.890625 -84.328125 C 77.222656 -87.421875 72.519531 -88.96875 66.78125 -88.96875 C 60.457031 -88.96875 55.425781 -87.316406 51.6875 -84.015625 C 47.957031 -80.710938 45.953125 -76.40625 45.671875 -71.09375 Z M 45.671875 -71.09375 "/></g></g></g><g fill="#0866ff" fill-opacity="1"><g transform="translate(368.262195, 519.741808)"><g><path d="M 12.921875 0 L 12.921875 -110.515625 L 51.0625 -110.515625 L 51.0625 -98.875 L 51.484375 -98.875 C 61.390625 -108.789062 71.945312 -113.75 83.15625 -113.75 C 88.613281 -113.75 94.035156 -113.03125 99.421875 -111.59375 C 104.804688 -110.15625 109.972656 -107.925781 114.921875 -104.90625 C 119.878906 -101.894531 123.898438 -97.625 126.984375 -92.09375 C 130.078125 -86.5625 131.625 -80.132812 131.625 -72.8125 L 131.625 0 L 93.5 0 L 93.5 -62.46875 C 93.5 -68.21875 91.664062 -73.242188 88 -77.546875 C 84.332031 -81.859375 79.554688 -84.015625 73.671875 -84.015625 C 67.929688 -84.015625 62.726562 -81.785156 58.0625 -77.328125 C 53.394531 -72.878906 51.0625 -67.925781 51.0625 -62.46875 L 51.0625 0 Z M 12.921875 0 "/></g></g></g><g fill="#0866ff" fill-opacity="1"><g transform="translate(499.874703, 519.741808)"><g><path d="M 20.453125 -13.671875 C 10.117188 -24.953125 4.953125 -38.773438 4.953125 -55.140625 C 4.953125 -71.515625 10.117188 -85.375 20.453125 -96.71875 C 30.796875 -108.070312 43.941406 -113.75 59.890625 -113.75 C 74.535156 -113.75 86.597656 -109.148438 96.078125 -99.953125 L 96.078125 -185.265625 L 134.203125 -185.265625 L 134.203125 0 L 96.515625 0 L 96.515625 -12.5 L 96.078125 -12.5 C 86.597656 -2.007812 74.535156 3.234375 59.890625 3.234375 C 43.941406 3.234375 30.796875 -2.398438 20.453125 -13.671875 Z M 52.875 -73.890625 C 47.925781 -69.003906 45.453125 -62.753906 45.453125 -55.140625 C 45.453125 -47.535156 47.820312 -41.328125 52.5625 -36.515625 C 57.300781 -31.703125 63.546875 -29.296875 71.296875 -29.296875 C 78.765625 -29.296875 84.90625 -31.738281 89.71875 -36.625 C 94.53125 -41.507812 96.9375 -47.679688 96.9375 -55.140625 C 96.9375 -62.753906 94.457031 -69.003906 89.5 -73.890625 C 84.550781 -78.773438 78.484375 -81.21875 71.296875 -81.21875 C 63.972656 -81.21875 57.832031 -78.773438 52.875 -73.890625 Z M 52.875 -73.890625 "/></g></g></g><g fill="#0866ff" fill-opacity="1"><g transform="translate(636.226188, 519.741808)"><g><path d="M 20.453125 -13.671875 C 10.117188 -24.953125 4.953125 -38.773438 4.953125 -55.140625 C 4.953125 -71.515625 10.117188 -85.375 20.453125 -96.71875 C 30.796875 -108.070312 43.941406 -113.75 59.890625 -113.75 C 74.535156 -113.75 86.597656 -109.148438 96.078125 -99.953125 L 96.078125 -110.515625 L 134.203125 -110.515625 L 134.203125 0 L 96.515625 0 L 96.515625 -12.5 L 96.078125 -12.5 C 86.597656 -2.007812 74.535156 3.234375 59.890625 3.234375 C 43.941406 3.234375 30.796875 -2.398438 20.453125 -13.671875 Z M 52.875 -73.890625 C 47.925781 -69.003906 45.453125 -62.753906 45.453125 -55.140625 C 45.453125 -47.535156 47.820312 -41.328125 52.5625 -36.515625 C 57.300781 -31.703125 63.546875 -29.296875 71.296875 -29.296875 C 78.765625 -29.296875 84.90625 -31.738281 89.71875 -36.625 C 94.53125 -41.507812 96.9375 -47.679688 96.9375 -55.140625 C 96.9375 -62.753906 94.457031 -69.003906 89.5 -73.890625 C 84.550781 -78.773438 78.484375 -81.21875 71.296875 -81.21875 C 63.972656 -81.21875 57.832031 -78.773438 52.875 -73.890625 Z M 52.875 -73.890625 "/></g></g></g><g fill="#d6d6d6" fill-opacity="1"><g transform="translate(772.582757, 519.741808)"><g><path d="M 37.484375 -46.09375 C 44.378906 -46.09375 50.226562 -43.6875 55.03125 -38.875 C 59.84375 -34.070312 62.25 -28.222656 62.25 -21.328125 C 62.25 -14.578125 59.84375 -8.796875 55.03125 -3.984375 C 50.226562 0.828125 44.378906 3.234375 37.484375 3.234375 C 30.734375 3.234375 24.953125 0.828125 20.140625 -3.984375 C 15.328125 -8.796875 12.921875 -14.578125 12.921875 -21.328125 C 12.921875 -28.222656 15.328125 -34.070312 20.140625 -38.875 C 24.953125 -43.6875 30.734375 -46.09375 37.484375 -46.09375 Z M 37.484375 -46.09375 "/></g></g></g><g fill="#0866ff" fill-opacity="1"><g transform="translate(836.99832, 519.741808)"><g><path d="M 7.96875 27.140625 L 39.203125 11.84375 C 44.953125 21.320312 54.9375 26.0625 69.15625 26.0625 C 75.757812 26.0625 81.894531 23.941406 87.5625 19.703125 C 93.238281 15.472656 96.078125 8.976562 96.078125 0.21875 L 96.078125 -7.96875 C 89.328125 -0.5 77.265625 3.234375 59.890625 3.234375 C 43.941406 3.234375 30.796875 -2.398438 20.453125 -13.671875 C 10.117188 -24.953125 4.953125 -38.773438 4.953125 -55.140625 C 4.953125 -71.515625 10.117188 -85.375 20.453125 -96.71875 C 30.796875 -108.070312 43.941406 -113.75 59.890625 -113.75 C 74.109375 -113.75 85.957031 -109.367188 95.4375 -100.609375 L 96.078125 -100.609375 L 96.078125 -110.515625 L 134.203125 -110.515625 L 134.203125 3.015625 C 134.203125 20.960938 128.242188 34.816406 116.328125 44.578125 C 104.410156 54.347656 88.6875 59.234375 69.15625 59.234375 C 37.550781 59.234375 17.15625 48.535156 7.96875 27.140625 Z M 52.875 -73.890625 C 47.925781 -69.003906 45.453125 -62.753906 45.453125 -55.140625 C 45.453125 -47.535156 47.820312 -41.328125 52.5625 -36.515625 C 57.300781 -31.703125 63.546875 -29.296875 71.296875 -29.296875 C 78.765625 -29.296875 84.90625 -31.738281 89.71875 -36.625 C 94.53125 -41.507812 96.9375 -47.679688 96.9375 -55.140625 C 96.9375 -62.753906 94.457031 -69.003906 89.5 -73.890625 C 84.550781 -78.773438 78.484375 -81.21875 71.296875 -81.21875 C 63.972656 -81.21875 57.832031 -78.773438 52.875 -73.890625 Z M 52.875 -73.890625 "/></g></g></g><g fill="#0866ff" fill-opacity="1"><g transform="translate(973.349791, 519.741808)"><g><path d="M 19.390625 -110.515625 L 19.390625 -151.65625 L 57.515625 -151.65625 L 57.515625 -110.515625 L 80.78125 -110.515625 L 80.78125 -81.421875 L 57.515625 -81.421875 L 57.515625 -46.3125 C 57.515625 -36.113281 60.390625 -31.015625 66.140625 -31.015625 C 67.566406 -31.015625 69.070312 -31.300781 70.65625 -31.875 C 72.238281 -32.457031 73.460938 -33.035156 74.328125 -33.609375 L 75.609375 -34.46875 L 85.09375 -3.65625 C 76.90625 0.9375 67.570312 3.234375 57.09375 3.234375 C 49.90625 3.234375 43.726562 1.976562 38.5625 -0.53125 C 33.394531 -3.050781 29.476562 -6.425781 26.8125 -10.65625 C 24.15625 -14.894531 22.253906 -19.347656 21.109375 -24.015625 C 19.960938 -28.679688 19.390625 -33.671875 19.390625 -38.984375 L 19.390625 -81.421875 L 3.453125 -81.421875 L 3.453125 -110.515625 Z M 19.390625 -110.515625 "/></g></g></g><g clip-path="url(#98b7ed619c)"><path stroke-linecap="round" transform="matrix(1.42803, -0.00168693, 0.00168693, 1.42803, 68.215373, 601.325568)" fill="none" stroke-linejoin="miter" d="M 4.999528 4.999824 L 687.236018 4.998805 " stroke="#0866ff" stroke-width="10" stroke-opacity="1" stroke-miterlimit="4"/></g></svg>