<svg xmlns="http://www.w3.org/2000/svg" xmlns:xlink="http://www.w3.org/1999/xlink" width="1500" zoomAndPan="magnify" viewBox="0 0 1125 675.000002" height="900" preserveAspectRatio="xMidYMid meet" version="1.0"><defs><g/><clipPath id="8b99ac263e"><path d="M 68.230469 79 L 250 79 L 250 245 L 68.230469 245 Z M 68.230469 79 " clip-rule="nonzero"/></clipPath><clipPath id="8608a74f85"><path d="M 68.230469 244 L 145 244 L 145 319.65625 L 68.230469 319.65625 Z M 68.230469 244 " clip-rule="nonzero"/></clipPath><clipPath id="11be945d6f"><path d="M 144 244 L 221 244 L 221 319.65625 L 144 319.65625 Z M 144 244 " clip-rule="nonzero"/></clipPath><clipPath id="a0ddf8fc8e"><path d="M 220 244 L 297 244 L 297 319.65625 L 220 319.65625 Z M 220 244 " clip-rule="nonzero"/></clipPath><clipPath id="8f096a5261"><path d="M 296 244 L 373 244 L 373 319.65625 L 296 319.65625 Z M 296 244 " clip-rule="nonzero"/></clipPath><clipPath id="3e786927dc"><path d="M 372 244 L 449 244 L 449 319.65625 L 372 319.65625 Z M 372 244 " clip-rule="nonzero"/></clipPath><clipPath id="a53e744e58"><path d="M 448 244 L 525 244 L 525 319.65625 L 448 319.65625 Z M 448 244 " clip-rule="nonzero"/></clipPath><clipPath id="1bd8a0e28d"><path d="M 524 244 L 601 244 L 601 319.65625 L 524 319.65625 Z M 524 244 " clip-rule="nonzero"/></clipPath><clipPath id="cab30319de"><path d="M 600 244 L 677 244 L 677 319.65625 L 600 319.65625 Z M 600 244 " clip-rule="nonzero"/></clipPath><clipPath id="00973f766e"><path d="M 676 244 L 753 244 L 753 319.65625 L 676 319.65625 Z M 676 244 " clip-rule="nonzero"/></clipPath><clipPath id="3713214728"><path d="M 752 244 L 829 244 L 829 319.65625 L 752 319.65625 Z M 752 244 " clip-rule="nonzero"/></clipPath><clipPath id="f8032c7d65"><path d="M 828 244 L 905 244 L 905 319.65625 L 828 319.65625 Z M 828 244 " clip-rule="nonzero"/></clipPath><clipPath id="8a6de92fd4"><path d="M 904 244 L 981 244 L 981 319.65625 L 904 319.65625 Z M 904 244 " clip-rule="nonzero"/></clipPath><clipPath id="9a3fd97c12"><path d="M 875 79 L 1056.429688 79 L 1056.429688 245 L 875 245 Z M 875 79 " clip-rule="nonzero"/></clipPath><clipPath id="73fefce1af"><path d="M 980 244 L 1056.429688 244 L 1056.429688 319.65625 L 980 319.65625 Z M 980 244 " clip-rule="nonzero"/></clipPath><clipPath id="5045389005"><path d="M 175 71.179688 L 950 71.179688 L 950 89 L 175 89 Z M 175 71.179688 " clip-rule="nonzero"/></clipPath></defs><g clip-path="url(#8b99ac263e)"><path fill="#0866ff" d="M 249.242188 79.890625 L 192.257812 79.890625 L 68.34375 244.644531 L 144.382812 244.644531 L 249.242188 79.890625 " fill-opacity="1" fill-rule="nonzero"/></g><g clip-path="url(#8608a74f85)"><path fill="#0866ff" d="M 68.34375 244.644531 L 68.34375 281.261719 C 68.34375 302.261719 85.367188 319.277344 106.367188 319.277344 C 127.359375 319.277344 144.382812 302.261719 144.382812 281.261719 L 144.382812 244.644531 L 68.34375 244.644531 " fill-opacity="1" fill-rule="nonzero"/></g><g clip-path="url(#11be945d6f)"><path fill="#ffffff" d="M 144.382812 244.644531 L 144.382812 281.261719 C 144.382812 302.261719 161.40625 319.277344 182.40625 319.277344 C 203.40625 319.277344 220.421875 302.261719 220.421875 281.261719 L 220.421875 244.644531 L 144.382812 244.644531 " fill-opacity="1" fill-rule="nonzero"/></g><path fill="#ffffff" d="M 220.421875 244.644531 L 306.214844 79.890625 L 249.242188 79.890625 L 144.382812 244.644531 L 220.421875 244.644531 " fill-opacity="1" fill-rule="nonzero"/><g clip-path="url(#a0ddf8fc8e)"><path fill="#0866ff" d="M 220.421875 244.644531 L 220.421875 281.261719 C 220.421875 302.261719 237.445312 319.277344 258.445312 319.277344 C 279.449219 319.277344 296.472656 302.261719 296.472656 281.261719 L 296.472656 244.644531 L 220.421875 244.644531 " fill-opacity="1" fill-rule="nonzero"/></g><path fill="#0866ff" d="M 296.472656 244.644531 L 363.195312 79.890625 L 306.214844 79.890625 L 220.421875 244.644531 L 296.472656 244.644531 " fill-opacity="1" fill-rule="nonzero"/><path fill="#ffffff" d="M 372.511719 244.644531 L 420.167969 79.890625 L 363.195312 79.890625 L 296.472656 244.644531 L 372.511719 244.644531 " fill-opacity="1" fill-rule="nonzero"/><g clip-path="url(#8f096a5261)"><path fill="#ffffff" d="M 296.472656 244.644531 L 296.472656 281.261719 C 296.472656 302.261719 313.496094 319.277344 334.488281 319.277344 C 355.488281 319.277344 372.511719 302.261719 372.511719 281.261719 L 372.511719 244.644531 L 296.472656 244.644531 " fill-opacity="1" fill-rule="nonzero"/></g><path fill="#0866ff" d="M 448.550781 244.644531 L 477.152344 79.890625 L 420.167969 79.890625 L 372.511719 244.644531 L 448.550781 244.644531 " fill-opacity="1" fill-rule="nonzero"/><g clip-path="url(#3e786927dc)"><path fill="#0866ff" d="M 372.511719 244.644531 L 372.511719 281.261719 C 372.511719 302.261719 389.535156 319.277344 410.527344 319.277344 L 410.535156 319.277344 C 431.527344 319.277344 448.550781 302.261719 448.550781 281.261719 L 448.550781 244.644531 L 372.511719 244.644531 " fill-opacity="1" fill-rule="nonzero"/></g><path fill="#ffffff" d="M 524.589844 244.644531 L 534.125 79.890625 L 477.152344 79.890625 L 448.550781 244.644531 L 524.589844 244.644531 " fill-opacity="1" fill-rule="nonzero"/><g clip-path="url(#a53e744e58)"><path fill="#ffffff" d="M 448.550781 244.644531 L 448.550781 281.261719 C 448.550781 302.261719 465.574219 319.277344 486.574219 319.277344 C 507.566406 319.277344 524.589844 302.261719 524.589844 281.261719 L 524.589844 244.644531 L 448.550781 244.644531 " fill-opacity="1" fill-rule="nonzero"/></g><path fill="#0866ff" d="M 600.640625 244.644531 L 591.105469 79.890625 L 534.125 79.890625 L 524.589844 244.644531 L 600.640625 244.644531 " fill-opacity="1" fill-rule="nonzero"/><g clip-path="url(#1bd8a0e28d)"><path fill="#0866ff" d="M 524.589844 244.644531 L 524.589844 281.261719 C 524.589844 302.261719 541.613281 319.277344 562.613281 319.277344 C 583.613281 319.277344 600.628906 302.261719 600.628906 281.261719 L 600.628906 244.644531 L 524.589844 244.644531 " fill-opacity="1" fill-rule="nonzero"/></g><path fill="#ffffff" d="M 676.679688 244.644531 L 648.078125 79.890625 L 591.105469 79.890625 L 600.640625 244.644531 L 676.679688 244.644531 " fill-opacity="1" fill-rule="nonzero"/><g clip-path="url(#cab30319de)"><path fill="#ffffff" d="M 600.628906 244.644531 L 600.628906 281.261719 C 600.628906 302.261719 617.652344 319.277344 638.652344 319.277344 C 659.65625 319.277344 676.679688 302.261719 676.679688 281.261719 L 676.679688 244.644531 L 600.628906 244.644531 " fill-opacity="1" fill-rule="nonzero"/></g><g clip-path="url(#00973f766e)"><path fill="#0866ff" d="M 676.679688 244.644531 L 676.679688 281.261719 C 676.679688 302.261719 693.703125 319.277344 714.695312 319.277344 C 735.695312 319.277344 752.71875 302.261719 752.71875 281.261719 L 752.71875 244.644531 L 676.679688 244.644531 " fill-opacity="1" fill-rule="nonzero"/></g><path fill="#0866ff" d="M 752.71875 244.644531 L 705.0625 79.890625 L 648.078125 79.890625 L 676.679688 244.644531 L 752.71875 244.644531 " fill-opacity="1" fill-rule="nonzero"/><path fill="#ffffff" d="M 828.757812 244.644531 L 762.035156 79.890625 L 705.0625 79.890625 L 752.71875 244.644531 L 828.757812 244.644531 " fill-opacity="1" fill-rule="nonzero"/><g clip-path="url(#3713214728)"><path fill="#ffffff" d="M 752.71875 244.644531 L 752.71875 281.261719 C 752.71875 302.261719 769.742188 319.277344 790.742188 319.277344 C 811.742188 319.277344 828.757812 302.261719 828.757812 281.261719 L 828.757812 244.644531 L 752.71875 244.644531 " fill-opacity="1" fill-rule="nonzero"/></g><path fill="#0866ff" d="M 904.804688 244.644531 L 819.015625 79.890625 L 762.035156 79.890625 L 828.757812 244.644531 L 904.804688 244.644531 " fill-opacity="1" fill-rule="nonzero"/><g clip-path="url(#f8032c7d65)"><path fill="#0866ff" d="M 828.757812 244.644531 L 828.757812 281.261719 C 828.757812 302.261719 845.78125 319.277344 866.78125 319.277344 C 887.78125 319.277344 904.804688 302.261719 904.804688 281.261719 L 904.804688 244.644531 L 828.757812 244.644531 " fill-opacity="1" fill-rule="nonzero"/></g><path fill="#ffffff" d="M 980.847656 244.644531 L 875.988281 79.890625 L 819.015625 79.890625 L 904.804688 244.644531 L 980.847656 244.644531 " fill-opacity="1" fill-rule="nonzero"/><g clip-path="url(#8a6de92fd4)"><path fill="#ffffff" d="M 904.804688 244.644531 L 904.804688 281.261719 C 904.804688 302.261719 921.820312 319.277344 942.820312 319.277344 C 963.824219 319.277344 980.847656 302.261719 980.847656 281.261719 L 980.847656 244.644531 L 904.804688 244.644531 " fill-opacity="1" fill-rule="nonzero"/></g><g clip-path="url(#9a3fd97c12)"><path fill="#0866ff" d="M 1056.886719 244.644531 L 932.96875 79.890625 L 875.988281 79.890625 L 980.847656 244.644531 L 1056.886719 244.644531 " fill-opacity="1" fill-rule="nonzero"/></g><g clip-path="url(#73fefce1af)"><path fill="#0866ff" d="M 980.847656 244.644531 L 980.847656 281.261719 C 980.847656 302.261719 997.871094 319.277344 1018.863281 319.277344 C 1039.863281 319.277344 1056.886719 302.261719 1056.886719 281.261719 L 1056.886719 244.644531 L 980.847656 244.644531 " fill-opacity="1" fill-rule="nonzero"/></g><g clip-path="url(#5045389005)"><path fill="#d6d6d6" d="M 941.414062 71.445312 L 183.8125 71.445312 C 179.148438 71.445312 175.363281 75.222656 175.363281 79.890625 C 175.363281 84.558594 179.148438 88.34375 183.8125 88.34375 L 941.414062 88.34375 C 946.082031 88.34375 949.867188 84.558594 949.867188 79.890625 C 949.867188 75.222656 946.082031 71.445312 941.414062 71.445312 " fill-opacity="1" fill-rule="nonzero"/></g><g fill="#0866ff" fill-opacity="1"><g transform="translate(77.259241, 532.525194)"><g><path d="M 1.71875 -142.171875 L 1.71875 -177.71875 L 126.671875 -177.71875 L 126.671875 -142.171875 L 84.453125 -142.171875 L 84.453125 0 L 43.953125 0 L 43.953125 -142.171875 Z M 1.71875 -142.171875 "/></g></g></g><g fill="#0866ff" fill-opacity="1"><g transform="translate(194.8703, 532.525194)"><g><path d="M 16.578125 -172.109375 C 21.035156 -176.566406 26.351562 -178.796875 32.53125 -178.796875 C 38.707031 -178.796875 44.019531 -176.566406 48.46875 -172.109375 C 52.914062 -167.660156 55.140625 -162.347656 55.140625 -156.171875 C 55.140625 -150.003906 52.914062 -144.691406 48.46875 -140.234375 C 44.019531 -135.785156 38.707031 -133.5625 32.53125 -133.5625 C 26.351562 -133.5625 21.035156 -135.785156 16.578125 -140.234375 C 12.128906 -144.691406 9.90625 -150.003906 9.90625 -156.171875 C 9.90625 -162.347656 12.128906 -167.660156 16.578125 -172.109375 Z M 12.921875 -110.515625 L 12.921875 0 L 51.0625 0 L 51.0625 -110.515625 Z M 12.921875 -110.515625 "/></g></g></g><g fill="#0866ff" fill-opacity="1"><g transform="translate(249.151735, 532.525194)"><g><path d="M 124.734375 -49.984375 L 44.59375 -49.984375 C 44.59375 -42.222656 47.101562 -36.472656 52.125 -32.734375 C 57.15625 -29.003906 62.613281 -27.140625 68.5 -27.140625 C 74.675781 -27.140625 79.554688 -27.960938 83.140625 -29.609375 C 86.734375 -31.265625 90.832031 -34.535156 95.4375 -39.421875 L 123 -25.640625 C 111.507812 -6.390625 92.410156 3.234375 65.703125 3.234375 C 49.046875 3.234375 34.753906 -2.472656 22.828125 -13.890625 C 10.910156 -25.304688 4.953125 -39.054688 4.953125 -55.140625 C 4.953125 -71.234375 10.910156 -85.023438 22.828125 -96.515625 C 34.753906 -108.003906 49.046875 -113.75 65.703125 -113.75 C 83.222656 -113.75 97.472656 -108.6875 108.453125 -98.5625 C 119.441406 -88.4375 124.9375 -73.960938 124.9375 -55.140625 C 124.9375 -52.554688 124.867188 -50.835938 124.734375 -49.984375 Z M 45.671875 -71.09375 L 87.671875 -71.09375 C 86.816406 -76.832031 84.554688 -81.242188 80.890625 -84.328125 C 77.222656 -87.421875 72.519531 -88.96875 66.78125 -88.96875 C 60.457031 -88.96875 55.425781 -87.316406 51.6875 -84.015625 C 47.957031 -80.710938 45.953125 -76.40625 45.671875 -71.09375 Z M 45.671875 -71.09375 "/></g></g></g><g fill="#0866ff" fill-opacity="1"><g transform="translate(368.270625, 532.525194)"><g><path d="M 12.921875 0 L 12.921875 -110.515625 L 51.0625 -110.515625 L 51.0625 -98.875 L 51.484375 -98.875 C 61.390625 -108.789062 71.945312 -113.75 83.15625 -113.75 C 88.613281 -113.75 94.035156 -113.03125 99.421875 -111.59375 C 104.804688 -110.15625 109.972656 -107.925781 114.921875 -104.90625 C 119.878906 -101.894531 123.898438 -97.625 126.984375 -92.09375 C 130.078125 -86.5625 131.625 -80.132812 131.625 -72.8125 L 131.625 0 L 93.5 0 L 93.5 -62.46875 C 93.5 -68.21875 91.664062 -73.242188 88 -77.546875 C 84.332031 -81.859375 79.554688 -84.015625 73.671875 -84.015625 C 67.929688 -84.015625 62.726562 -81.785156 58.0625 -77.328125 C 53.394531 -72.878906 51.0625 -67.925781 51.0625 -62.46875 L 51.0625 0 Z M 12.921875 0 "/></g></g></g><g fill="#0866ff" fill-opacity="1"><g transform="translate(499.883133, 532.525194)"><g><path d="M 20.453125 -13.671875 C 10.117188 -24.953125 4.953125 -38.773438 4.953125 -55.140625 C 4.953125 -71.515625 10.117188 -85.375 20.453125 -96.71875 C 30.796875 -108.070312 43.941406 -113.75 59.890625 -113.75 C 74.535156 -113.75 86.597656 -109.148438 96.078125 -99.953125 L 96.078125 -185.265625 L 134.203125 -185.265625 L 134.203125 0 L 96.515625 0 L 96.515625 -12.5 L 96.078125 -12.5 C 86.597656 -2.007812 74.535156 3.234375 59.890625 3.234375 C 43.941406 3.234375 30.796875 -2.398438 20.453125 -13.671875 Z M 52.875 -73.890625 C 47.925781 -69.003906 45.453125 -62.753906 45.453125 -55.140625 C 45.453125 -47.535156 47.820312 -41.328125 52.5625 -36.515625 C 57.300781 -31.703125 63.546875 -29.296875 71.296875 -29.296875 C 78.765625 -29.296875 84.90625 -31.738281 89.71875 -36.625 C 94.53125 -41.507812 96.9375 -47.679688 96.9375 -55.140625 C 96.9375 -62.753906 94.457031 -69.003906 89.5 -73.890625 C 84.550781 -78.773438 78.484375 -81.21875 71.296875 -81.21875 C 63.972656 -81.21875 57.832031 -78.773438 52.875 -73.890625 Z M 52.875 -73.890625 "/></g></g></g><g fill="#0866ff" fill-opacity="1"><g transform="translate(636.234619, 532.525194)"><g><path d="M 20.453125 -13.671875 C 10.117188 -24.953125 4.953125 -38.773438 4.953125 -55.140625 C 4.953125 -71.515625 10.117188 -85.375 20.453125 -96.71875 C 30.796875 -108.070312 43.941406 -113.75 59.890625 -113.75 C 74.535156 -113.75 86.597656 -109.148438 96.078125 -99.953125 L 96.078125 -110.515625 L 134.203125 -110.515625 L 134.203125 0 L 96.515625 0 L 96.515625 -12.5 L 96.078125 -12.5 C 86.597656 -2.007812 74.535156 3.234375 59.890625 3.234375 C 43.941406 3.234375 30.796875 -2.398438 20.453125 -13.671875 Z M 52.875 -73.890625 C 47.925781 -69.003906 45.453125 -62.753906 45.453125 -55.140625 C 45.453125 -47.535156 47.820312 -41.328125 52.5625 -36.515625 C 57.300781 -31.703125 63.546875 -29.296875 71.296875 -29.296875 C 78.765625 -29.296875 84.90625 -31.738281 89.71875 -36.625 C 94.53125 -41.507812 96.9375 -47.679688 96.9375 -55.140625 C 96.9375 -62.753906 94.457031 -69.003906 89.5 -73.890625 C 84.550781 -78.773438 78.484375 -81.21875 71.296875 -81.21875 C 63.972656 -81.21875 57.832031 -78.773438 52.875 -73.890625 Z M 52.875 -73.890625 "/></g></g></g><g fill="#d6d6d6" fill-opacity="1"><g transform="translate(772.591188, 532.525194)"><g><path d="M 37.484375 -46.09375 C 44.378906 -46.09375 50.226562 -43.6875 55.03125 -38.875 C 59.84375 -34.070312 62.25 -28.222656 62.25 -21.328125 C 62.25 -14.578125 59.84375 -8.796875 55.03125 -3.984375 C 50.226562 0.828125 44.378906 3.234375 37.484375 3.234375 C 30.734375 3.234375 24.953125 0.828125 20.140625 -3.984375 C 15.328125 -8.796875 12.921875 -14.578125 12.921875 -21.328125 C 12.921875 -28.222656 15.328125 -34.070312 20.140625 -38.875 C 24.953125 -43.6875 30.734375 -46.09375 37.484375 -46.09375 Z M 37.484375 -46.09375 "/></g></g></g><g fill="#0866ff" fill-opacity="1"><g transform="translate(837.006751, 532.525194)"><g><path d="M 7.96875 27.140625 L 39.203125 11.84375 C 44.953125 21.320312 54.9375 26.0625 69.15625 26.0625 C 75.757812 26.0625 81.894531 23.941406 87.5625 19.703125 C 93.238281 15.472656 96.078125 8.976562 96.078125 0.21875 L 96.078125 -7.96875 C 89.328125 -0.5 77.265625 3.234375 59.890625 3.234375 C 43.941406 3.234375 30.796875 -2.398438 20.453125 -13.671875 C 10.117188 -24.953125 4.953125 -38.773438 4.953125 -55.140625 C 4.953125 -71.515625 10.117188 -85.375 20.453125 -96.71875 C 30.796875 -108.070312 43.941406 -113.75 59.890625 -113.75 C 74.109375 -113.75 85.957031 -109.367188 95.4375 -100.609375 L 96.078125 -100.609375 L 96.078125 -110.515625 L 134.203125 -110.515625 L 134.203125 3.015625 C 134.203125 20.960938 128.242188 34.816406 116.328125 44.578125 C 104.410156 54.347656 88.6875 59.234375 69.15625 59.234375 C 37.550781 59.234375 17.15625 48.535156 7.96875 27.140625 Z M 52.875 -73.890625 C 47.925781 -69.003906 45.453125 -62.753906 45.453125 -55.140625 C 45.453125 -47.535156 47.820312 -41.328125 52.5625 -36.515625 C 57.300781 -31.703125 63.546875 -29.296875 71.296875 -29.296875 C 78.765625 -29.296875 84.90625 -31.738281 89.71875 -36.625 C 94.53125 -41.507812 96.9375 -47.679688 96.9375 -55.140625 C 96.9375 -62.753906 94.457031 -69.003906 89.5 -73.890625 C 84.550781 -78.773438 78.484375 -81.21875 71.296875 -81.21875 C 63.972656 -81.21875 57.832031 -78.773438 52.875 -73.890625 Z M 52.875 -73.890625 "/></g></g></g><g fill="#0866ff" fill-opacity="1"><g transform="translate(973.358222, 532.525194)"><g><path d="M 19.390625 -110.515625 L 19.390625 -151.65625 L 57.515625 -151.65625 L 57.515625 -110.515625 L 80.78125 -110.515625 L 80.78125 -81.421875 L 57.515625 -81.421875 L 57.515625 -46.3125 C 57.515625 -36.113281 60.390625 -31.015625 66.140625 -31.015625 C 67.566406 -31.015625 69.070312 -31.300781 70.65625 -31.875 C 72.238281 -32.457031 73.460938 -33.035156 74.328125 -33.609375 L 75.609375 -34.46875 L 85.09375 -3.65625 C 76.90625 0.9375 67.570312 3.234375 57.09375 3.234375 C 49.90625 3.234375 43.726562 1.976562 38.5625 -0.53125 C 33.394531 -3.050781 29.476562 -6.425781 26.8125 -10.65625 C 24.15625 -14.894531 22.253906 -19.347656 21.109375 -24.015625 C 19.960938 -28.679688 19.390625 -33.671875 19.390625 -38.984375 L 19.390625 -81.421875 L 3.453125 -81.421875 L 3.453125 -110.515625 Z M 19.390625 -110.515625 "/></g></g></g></svg>